<svg width="125" height="81.387" viewBox="0 0 300 81.387" xmlns="http://www.w3.org/2000/svg"><path d="M256.09 76.213c4.18.404 8.353.84 12.52 1.29l9.198-22.712 8.744 24.808c4.488.563 8.97 1.15 13.442 1.768l-15.328-43.502L300 0h-12.987l-.133.185-8.283 20.455L271.327 0h-12.822l13.238 37.564-15.652 38.65zm-9.698-.89V.004h-12.818v74.265c4.278.327 8.552.684 12.818 1.056m-96.278-4.214c3.46 0 6.914.026 10.365.054v-27.67h15.396V31.707H160.48v-19.91h17.732V0h-30.6v71.12c.832 0 1.665-.01 2.502-.01m-39.796.72a1141.5 1141.5 0 0 1 12.825-.384V11.798h11.978V0H98.34v11.8h11.98v60.03zm-98.022 7.944V34.898L27.47 77.96c4.668-.524 9.343-1.017 14.028-1.48V.002H29.202v46.482L12.824.004H0v81.383h.076c4.065-.563 8.14-1.098 12.22-1.613M85.98 11.797V0H55.376v75.202a1100.677 1100.677 0 0 1 30.58-2.21v-11.81c-5.917.344-11.82.74-17.71 1.18V43.497H83.64v-11.79H68.245v-19.91H85.98zM203.615 60.62V0h-12.872v71.875c10.238.375 20.44.9 30.604 1.558V61.62c-5.9-.382-11.81-.713-17.732-1" fill="#fff"/></svg>