<svg width="195" height="59" viewBox="0 0 195 59" xmlns="http://www.w3.org/2000/svg"><title>emily</title><path d="M188.103 30.518h-2.28V14.213h2.28v2.61h.065c1.468-1.47 3.783-2.936 6.393-2.936v2.152c-2.575 0-5.15 1.27-6.456 2.183v12.294zm-11.17 0h-2.283V14.213h2.282v2.61h.065c1.47-1.47 3.783-2.936 6.39-2.936v2.152c-2.575 0-5.15 1.27-6.455 2.183v12.294zm-7.615-7.86H165.6c-3.555 0-4.696 1.274-4.696 3.295 0 1.86 1.4 3.097 3.88 3.097a7.292 7.292 0 0 0 4.534-1.565V22.66zm-9.263-6.26l-.357-1.858c2.15-.425 4.336-.652 6.065-.652 3.782 0 5.836 1.174 5.836 5.347v11.283h-2.283v-1.63h-.065c-1.664 1.37-3.164 1.956-5.316 1.956-3.262 0-5.315-1.826-5.315-4.696 0-3.49 2.707-4.924 6.85-4.924h3.847v-1.857c0-2.414-1.11-3.555-4.044-3.555-1.207 0-2.77.097-5.22.587zm-8.637-2.51c2.023 0 3.49.228 5.447.717l-.425 1.86c-2.543-.654-3.913-.654-5.022-.654-3.88 0-5.38 2.807-5.38 6.557s1.5 6.554 5.38 6.554c1.11 0 2.48 0 5.022-.652l.425 1.86c-1.958.49-3.424.717-5.447.717-5.772 0-7.792-3.457-7.792-8.478 0-5.022 2.02-8.48 7.792-8.48zm-29.32.325h2.575l5.252 14.054h.065l4.826-14.054h2.445l-6.29 17.48c-1.436 4.043-3.26 5.673-6.26 5.673-.718 0-1.567-.1-2.186-.23l.228-1.923a6.232 6.232 0 0 0 1.467.164c2.48 0 3.653-2.544 4.403-4.5L122.1 14.213zm-5.073-6.52h2.282v22.825h-2.282V7.692zm-4.27 22.825h-2.28V14.213h2.28v16.305zm0-18.295h-2.28v-3.88h2.28v3.88zM85.86 30.518h-2.283V14.213h2.282v2.38h.063c1.338-1.37 3.066-2.706 5.446-2.706s3.913 1.01 4.5 2.935c1.5-1.598 3.553-2.935 5.902-2.935 3.26 0 4.89 1.892 4.89 5.35v11.28h-2.283V19.725c0-2.25-.913-3.912-3.587-3.912-1.925 0-3.554 1.336-4.63 2.25.064.49.098 1.11.098 1.76V30.52h-2.283V19.63c-.03-2.186-.945-3.816-3.586-3.816-1.923 0-3.456 1.304-4.532 2.184V30.52zM69.263 21.16h9.23c.13-.62.194-1.273.13-1.924-.13-1.89-1.207-3.555-4.175-3.555-3.718 0-4.957 2.448-5.186 5.48zm0 1.5c.065 3.652 1.566 6.26 5.838 6.26 1.663 0 3.26-.098 5.087-.652l.294 1.86c-1.956.553-3.586.717-5.706.717-5.902 0-7.988-3.458-7.988-8.48 0-5.02 2.086-8.478 7.793-8.478 5.052 0 6.292 3.13 6.357 5.87.066.945-.065 1.956-.23 2.903H69.265zM39.53 53.236c-.324.236-1.654.7-2.966 1.077-1.088.31-2.17.548-2.627.622-.805.13-2.895.37-4.86.252-1.168-.07-2.926-.22-4.58-.526-1.128-.203-2.18-.48-3.02-.697-1.42-.365-3.43-1.03-4.187-1.446.592.25 2.24.96 4.35 1.37.68.134 1.64.265 2.306.314 2.238.168 4.375-.046 4.54-.017.466.08 2.933.306 4.688.11a26.506 26.506 0 0 0 4.262-.837c.733-.208 2.056-.582 3.594-1.337-.736.533-.94.71-1.5 1.117m1.032-3.196c0 .007-.895.587-1.526.918-2.456 1.303-3.95 1.6-3.95 1.595a23.59 23.59 0 0 0 1.504-.592c.334-.15 1.89-.867 2.91-1.573.124-.086 1.044-.346 1.062-.346m-20.327.6c1.922.56 3.924.67 4.086.674 3.58.75 6.846.61 6.83.628-.182.12-3.99.552-6.002.18-.596-.112-3.233-.45-6.282-1.897-.126-.058-.394-.222-.394-.222s1.53.57 1.765.638m27.17-4.417c-1.204 1.675-2.928 3.145-3.046 3.178-.02.01-.237-.035-.3-.035-.06.03-.265.244-.692.713-.426.47-2.547 1.692-3.19 1.97-.643.275-2.493.876-3.275 1.11-1.02.306-2.965.622-3.806.667-.656.035-2.16.08-2.16.073 1.02-.083 2.144-.302 3.22-.558 1.08-.255 2.383-.725 3.488-1.19 1.325-.56 2.87-1.495 3.503-1.945.423-.297 1.013-.782 1.15-.84.785-.335 1.67-.824 2.155-1.125 1.405-.872 2.754-1.87 3.732-3.17-.212.3-.59.888-.78 1.153m-37.667-.115c.144.188.702.983 1.195 1.533-.858-.764-2.817-2.66-3.713-4.257.8.945 2.386 2.557 2.517 2.725m33.754-6.163c-.287.546-1.98 2.19-2.345 2.515-.88.78-1.867 1.564-2.872 2.22-.94.616-1.898 1.116-2.77 1.55-3.476 1.715-7.838 2.096-7.9 2.088-.528-.074-2.63-.5-2.912-.64.1-.06.637.046.807.056.694.043 1.42.126 2.195.093 3.767-.156 6.26-1.358 6.964-1.665a27.336 27.336 0 0 0 4.83-2.703c.508-.358 2.643-2.21 2.778-2.343.08-.082.744-.766 1.23-1.17m.737.324c-.462 1.15-1.672 3.27-2 3.737-.215.307-1.02.993-1.38 1.24-.87.6-2.023 1.184-3.233 1.67-1.017.407-4.222 1.195-4.932 1.373-.13.034-.91.17-1.112.214-.098.022-1.113-.005-1.68-.038.713-.13 2.02-.434 2.562-.582 1.256-.343 2.94-1.09 3.13-1.18 2.786-1.317 4.986-2.958 6.996-4.972.713-.708 1.82-2.13 1.943-2.33-.01.173-.226.705-.293.87m-32.38.34c.297.377 1.594 1.95 2.532 2.64-.572-.28-1.887-1.246-1.967-1.35-.498-.645-1.646-2.185-2.13-3.562.545.964 1.136 1.73 1.565 2.27m6.36 2.604c1.44.908 3.044 1.657 4.8 2.252 1.82.616 4.42.9 6.17.88a21.08 21.08 0 0 0 2.942-.26c1.52-.234 4.072-1.107 4.072-1.107s-2.592 1.315-4.708 1.882c-2.357.63-4.432.54-4.745.498-.024.015-2.372-.108-4.554-.638-.89-.313-2.618-1.367-3.508-1.99-2.7-1.877-5.222-5.192-6.072-6.817 1.37 1.91 3.422 3.93 5.604 5.3m28.39 2.863c-1.496 1.398-2.628 1.85-2.628 1.85.417-.426 2.95-2.812 4.312-5.49.053-.11 1.04-1.355 1.63-2.438.646-1.188.946-2.063 1.11-2.387.242-.47.566-1.046.578-1.046-.103.604-.436 2.11-.666 2.76-.335.94-.774 2.28-1.454 3.484-.047.087-1.33 1.907-2.882 3.268m1.976-16.408c0 2.326-.694 5.283-1.544 7.243-.398.92-.737 1.813-1.238 2.627a36.775 36.775 0 0 1-1.238 1.875 14.87 14.87 0 0 1-.86 1.05 25.94 25.94 0 0 0 1.05-2.14c.34-.78.4-1.014.693-1.834.154-.434.173-.745.26-.9a23.474 23.474 0 0 0 1.68-3.58c.53-1.43 1.195-4.34 1.195-4.34M34.73 56.076c-1.47.645-3.433 1.305-5.346 1.55-.778.1-1.645.187-2.47.202-1.733.033-2.945-.103-4.504-.342-1.56-.243-3.54-.84-4.145-1.06-.846-.308-2.725-1.104-2.975-1.233-.876-.456-1.785-.887-2.594-1.423-.55-.366-1.085-.765-1.614-1.146-.062-.045-2.178-1.605-4.286-4.138-1.642-1.976-3.187-4.452-4.055-6.184-.172-.35-.86-1.925-1.324-3.54a26.84 26.84 0 0 1-.713-3.397c-.13-.92-.26-4.16.18-6.07A3.36 3.36 0 0 1 .9 29.28c.09.802.532 2.472.76 3.112.187 1.795.652 3.394 1.04 4.388.92 2.352 1.935 4.41 3.195 6.33 1.49 2.282 3.015 3.82 3.86 4.59.84.77 1.78 1.495 2.715 2.15.532.372 1.602 1.04 1.68 1.092.172.115.44.292.65.478 1.12.996 2.39 1.694 4.777 2.46 1.42.46 3.87 1.127 5.57 1.352 1.7.223 3.017.465 5.1.45a23.43 23.43 0 0 0 4.412-.44c1.08-.208 2.18-.532 3.06-.808-.41.32-1.88 1.155-2.99 1.642m-31.3-23.44c.23.993.485 1.89.844 2.738.257.608.54 1.198.845 1.78.133.257.3.586.413.852.05.12.07.164.11.293.12.36.253.754.395 1.11.397.994.586 1.414 1.135 2.38.23.405.82 1.5 1.17 2.04-.858-.91-1.78-2.247-2.213-2.944-.27-.437-.928-1.53-1.152-2.04-.076-.17-.496-1.015-.846-1.85a14.204 14.204 0 0 1-.477-1.342 51.21 51.21 0 0 1-.588-2.28c-.08-.43-.154-1.35-.194-1.794-.09-1.013-.03-2.645-.025-3.148.167 1.69.227 2.675.58 4.204m5.266-5.14c.165 2.275.71 3.895.856 4.33.14.42.322.99.567 1.59.31.766.75 1.548.86 1.88.33.984.974 2.36 1.287 2.903.4.69.832 1.326 1.294 1.966a31.45 31.45 0 0 0 1.635 1.99c.544.6 1.2 1.24 1.725 1.712.556.496 2.06 1.647 2.82 2.077-.36-.08-3.07-1.213-3.95-1.946-.59-.495-1.15-1-1.688-1.54-1.69-1.687-3.187-3.43-4.743-6.526-.5-.99-.934-2.52-1.053-3.168-.6-3.272-.385-5.077-.347-5.81.035-.73.085-1.293.167-1.853.084-.144.16-.272.162-.288.05-.15.43-1.397.496-1.746-.277 2.064-.166 3.36-.09 4.424m-5.94-3.9c.384-1.953.948-3.678 1.13-4.08-.347 1.37-.702 3.062-.867 4.457-.02.244-.052.546-.07.79-.13.526-.253 1.048-.318 1.606-.065.557-.213 2.312-.23 2.312-.163-2.178.255-4.58.355-5.084m49.78 2.006a40.95 40.95 0 0 0-.43-3.357c-.16-.863-.37-1.964-.837-3.174-.615-1.59-1.073-2.397-1.684-3.445.667.945 1.224 2.02 1.565 2.793.256.58.577 1.244.767 1.88.558 1.85.908 5.636.885 6.94-.012.737-.02 2.905-.452 4.25.47-3.34.24-5.104.186-5.888M11.1 20.054c-.23.6-.763 2.376-.944 3.95-.023.25-.453 2.77-.226 5.373.13 1.516.162 1.446.455 3.63 0 0-.85-2.003-1.203-4.76-.4-2.845.102-5.95.132-6.26.026-.278.102-.493.187-.738.128-.366.833-1.754 1.014-2.06 1.83-3.108 3.34-4.22 3.412-4.334.007 0-1.566 1.92-2.828 5.196m40.928-2.58c.293.545.567 1.073.875 1.75.33.72.69 1.605 1.044 2.984.306 1.197.41 2.96.41 3.43.08 2.676-.175 5.96-.88 8.646-.704 2.684-1.306 3.893-1.634 4.67-.3.716-.972 1.875-.972 1.875l-.015-.078s.726-2.01.9-2.783c.12-.535.445-2.02.482-2.842.348-.672 1.222-3.536 1.31-5.252.027-.553.057-1.234.043-1.905a43.268 43.268 0 0 0-.154-2.733c-.043-.51-.225-1.686-.298-2.204-.185-1.325-.872-3.03-.92-3.22-.342-1.335-1.053-2.96-1.503-3.88-.146-.298-.518-1.076-1.31-2.293 1.606 1.997 2.09 2.85 2.622 3.838M43.39 50.728c1.115-.787 2.436-1.887 3.17-2.735.736-.847 1.475-1.75 1.932-2.438.538-.805.963-1.673 1.43-2.553.105-.2 2.022-2.47 3.29-6.12.403-1.165.667-1.95 1.11-4.21.44-2.26.512-3.662.547-5.212.033-1.55 0-1.85-.087-3.043-.087-1.194-.364-2.455-.56-3.054-1.13-3.45-2.558-5.546-4.052-7.47-.772-.997-2.426-2.72-2.42-2.727 1.593 1.257 3.273 3.347 3.663 3.88.89 1.21 3.48 4.952 4.233 9.06.808 4.412.517 9.29-.368 12.862-1.55 6.255-6.51 11.29-13.59 15.26 1.045-.88 1.59-1.425 1.7-1.5m2.66-40.56c.56.438 1.827 1.98 2.436 2.832.38.533 1.26 1.826 1.444 2.358-.548-.876-1.578-2.23-2.368-2.995-.34-.56-.996-1.45-1.57-2.193.02 0 .04-.003.057-.003m-29.87 2.09c-.34.176-1.6.97-2.92 2.127.464-.55 1.3-1.377 2.436-2.32 1.29-1.075 3.03-2.03 3.374-2.216-.586.404-1.728 1.19-2.89 2.41m10.656-2.673c2.476.232 4.91.947 5.785 1.233 3.216 1.044 5.99 3.02 7.52 4.57 1.777 1.8 4.205 5.59 5.012 8.37.808 2.782.905 3.597 1.05 5.17.143 1.57.04 5.232-.186 5.794-.304.75-.89 1.733-1.37 2.493-2.072 3.284-4.91 5.752-8.667 7.345-.93.394-1.858.655-2.95.907-1.09.25-2.24.475-4.66.445-2.416-.03-4.94-.632-6.824-1.425-1.025-.432-3.902-1.838-5.7-3.64-.174-.173-2.244-2.142-3.13-3.542-.402-.635-.852-1.26-1.202-1.948-.092-.184-.162-.355-.244-.55-.085-.192-.11-.368-.166-.58-.18-.697-.63-3.05-.713-3.99-.024-.29-.213-2.302-.076-3.903.084-1.075.204-2.355.48-3.64.278-1.302.63-2.397 1.134-3.56 1.422-3.296 3.578-5.652 3.713-5.74.045-.03.134-.024.18-.054.592-.368 1.116-.712 1.697-1.08 3.09-1.927 6.498-2.565 8.01-2.746.902.04 1.082.05 1.31.07m19.83 20.26c-.04-1.844-.31-3.956-1.24-6.676-.547-1.608-1.305-3.088-2.137-4.445-.824-1.345-2.098-3.15-3.73-4.54a20.432 20.432 0 0 0-3.574-2.443c-1.71-.92-2.96-1.412-4.776-1.83-.54-.123-1.728-.395-2.29-.46 2.85.147 4.774.785 5.356.983 1.096.37 2.15.77 3.12 1.277 3.483 1.83 6.074 4.09 8.11 7.363a29.4 29.4 0 0 1 1.22 2.204c.278.553.89 1.927.895 2.003.11.457.215 1.508.244 2.56.02.764-.015 1.545-.05 2.023-.098 1.356-.477 3.082-.717 3.91-.24.83-.4 1.14-.412 1.26h-.058c.006-.663.078-1.346.04-3.19M26.85 8.707c-.542.098-3.605.324-7.078 1.723a32.98 32.98 0 0 0-1.795.778c.48-.458 2.147-1.57 2.212-1.588a22.46 22.46 0 0 1 3.184-.708c1.143-.175 3.104-.21 3.475-.205m18.25 1.988c.268.22 1.707 1.392 2.173 1.998.388.502 1.36 2.23 1.776 3.172-1.24-1.648-2.364-2.95-3.13-3.69-1.508-1.458-2.556-2.37-5.02-4.112 1.476.665 3.26 1.862 4.2 2.632m-32.73-.017c1.123-.932 3.44-2.333 4.28-2.72-.51.287-1.618 1.03-2.74 2.033-1.434 1.286-2.956 2.973-3.974 4.42-.375.532-1.386 1.893-1.924 3.043-.122.26-.282.534-.402.8-.87 1.952-2.01 4.237-2.64 6.882h-.02c.16-1.614.21-1.688.582-3.3.707-3.073 2.583-6.26 3.845-7.914.292-.382.948-1.29 1.825-2.2.13-.133.947-.863 1.173-1.04M35.44 8.4c1.834.713 3.157 1.485 4.02 2.075.862.587 1.202.832 2.065 1.578-.86-.586-2.794-2.046-6.603-3.35-1.9-.648-3.647-1.31-7.178-1.497 3.476-.17 6.68.8 7.695 1.195m1.59-1.756c.17.085 1.518.884 1.65 1.024-.24-.15-1.017-.522-1.485-.746-.19-.09-.655-.308-1.265-.53.312.06.934.167 1.102.253m-3.95-1.385c.514.108 1.467.384 1.942.537-.457-.1-1.228-.19-1.633-.223a33.81 33.81 0 0 0-2.5-.676 25.47 25.47 0 0 1 2.19.362m8.453 1.858c.868.49 3.49 2.642 4.18 3.544-2.062-1.793-4.45-3.11-7.303-4.072-.08-.026-1.915-1.037-3.774-1.602-.04-.035-.047-.05-.05-.093C37.43 5.16 41.324 7 41.532 7.118M25.372 4.15c-.862.136-1.603.25-3.02.526-1.572.305-4.683 1.385-7.108 3.037-2.424 1.652-4.114 3.128-5.504 4.603-.854.902-1.79 1.806-3.57 4.4.712-1.773 1.605-2.874 2.03-3.56.487-.783 1.76-2.43 2.297-2.98 1.444-1.475 3.303-2.8 4.737-3.543 2.533-1.31 5.74-1.885 6.607-2.026.866-.14 3.457-.464 3.533-.457m8.524-.47c2.35.542 4.393 1.425 5.31 1.956-.386-.093-2.54-1.135-6.577-1.45-.35-.086-1.408-.37-2.23-.546-.825-.178-3.348-.585-6.284-.333 2.838-.6 6.994-.27 9.78.374m-.634-1.99c1.08.323 2.982 1.033 6.464 3.078-.01.033-.004.018-.018.038-.065.023-3.007-1.48-5.63-1.99-2.62-.508-4.08-.774-7.3-.672-3.984.124-7.48 1.323-10.25 2.647-2.77 1.32-3.357 1.757-4.427 2.534-1.066.777-2.87 2.208-5 5.32-.19.274-.32.565-.506.844-.25.373-.568.72-.827 1.086A20.032 20.032 0 0 0 3.8 18.082c-.55 1.268-.918 2.646-1.37 4.013-.206.63-1.124 4.383-1.123 6.538-.402-1.707-.615-6.87.85-10.91.79-2.185 2.5-5.574 5-8.323a26.222 26.222 0 0 1 5.52-4.606c1.478-.928 3.107-1.717 4.88-2.443.963-.394 4.664-1.55 7.047-1.7 2.792-.187 5.396.068 8.66 1.04M25.67.007c2.31-.053 4.88.244 7.24.976a29.06 29.06 0 0 1 5.55 2.38c1.166.66 3.216 2.01 4.54 3.226a24.07 24.07 0 0 0 1.463 1.293c.23.175.417.436.656.6.227.158 1.665 1.13 3.095 2.344 1.48 1.257 3.247 3.285 4.365 4.914 4.09 5.95 4.334 10.657 4.27 14.286-.106 5.856-1.31 9.796-3.292 12.755-3.062 4.568-6.33 6.847-8.664 8.29a43.735 43.735 0 0 1-5.306 2.812c-.294.132-1.574 1.082-2.477 1.595-.9.515-3.09 1.686-4.74 2.1-2.554.642-4.11.758-6.34.77-.594 0-3.33-.192-4.93-.583-5.086-1.23-8.424-3.09-10.785-5.044-2.918-2.413-4.31-4.092-5.588-5.962-1.2-1.755-2.328-3.67-3.15-5.718C.683 38.813-.005 35.856 0 33.01c.004-1.85.52-4.575.658-5.118-.04-.32-.663-3 .11-7.257.526-2.884 1.826-5.79 2.738-7.258 3.25-5.225 7.54-8.98 13.522-11.457C20.068.66 23.354.058 25.67.006M155.83 47.21c-.783 0-1.536-.073-2.156-.227l.135-.59a8.12 8.12 0 0 0 1.94.228c1.1 0 1.204-.69 1.204-.896 0-.38-.227-.69-1.3-.907-1.052-.197-1.878-.537-1.878-1.58 0-.917.65-1.392 1.847-1.392.785 0 1.393.073 2.01.228l-.132.587a7.484 7.484 0 0 0-1.836-.227c-1.082 0-1.165.61-1.165.784 0 .382.174.71 1.237.93 1.135.235 1.94.545 1.94 1.535 0 .98-.65 1.527-1.848 1.527zm11.223-4.532v-.008.008zm0 4.428v-.03.03zm0 0h-.722v-5.16h.725v.755h.02c.526-.504 1.166-.854 1.918-.854 1.033 0 1.55.6 1.55 1.69v3.57h-.723v-3.414c0-.71-.28-1.236-1.136-1.236-.68 0-1.29.422-1.63.69v3.962zm-2.96-3.507c0-.756-.527-1.26-1.332-1.26-.905 0-1.36.504-1.36 1.26 0 .75.517 1.194 1.36 1.194.82 0 1.334-.464 1.334-1.196zm-1.475 5.186c1.103 0 2.01-.38 2.01-1.155 0-.33-.215-.627-.96-.67l-1.96-.102c-.4.267-.71.505-.71.96 0 .576.485.967 1.62.967zm-1.29-2.063a.668.668 0 0 1-.383-.702c.02-.327.238-.7.64-.957v-.022c-.525-.256-.866-.76-.866-1.442 0-1.105.762-1.755 2.04-1.755.29 0 .507.05.692.102h1.775v.454h-1.093c.504.32.618.815.618 1.2 0 1.133-.867 1.69-1.992 1.69-.287 0-.617-.06-.792-.135a1.307 1.307 0 0 0-.248.34c-.175.34-.134.744.3.764l1.898.113c1.083.072 1.475.485 1.475 1.135 0 1.122-.92 1.764-2.94 1.764-1.332 0-2.064-.424-2.064-1.343 0-.474.287-.845.937-1.185v-.022zm-1.827.382h-.72v-5.16h.72v5.16zm0-5.788h-.72V40.09h.72v1.228zm-10.304 3.332v-.03.03zm0-.506h2.92c.04-.195.062-.402.04-.61-.04-.597-.38-1.122-1.32-1.122-1.175 0-1.567.772-1.64 1.732zm0 .474c.02 1.155.496 1.98 1.846 1.98.53 0 1.034-.03 1.61-.206l.094.59c-.62.174-1.135.225-1.805.225-1.87 0-2.53-1.095-2.53-2.682 0-1.59.66-2.684 2.47-2.684 1.597 0 1.99.99 2.01 1.858.02.3-.02.62-.073.92h-3.62zm-3.848 1.98c.63 0 1.155-.3 1.393-.495v-3.157a2.316 2.316 0 0 0-1.392-.495c-1.115 0-1.435.97-1.435 2.075 0 1.113.32 2.073 1.435 2.073zm1.393-.01h-.02c-.392.362-1 .62-1.65.62-1.446 0-1.92-1.176-1.92-2.683 0-1.505.517-2.683 1.96-2.683.62 0 1.218.238 1.61.6h.02v-2.56h.723v7.22h-.722v-.514zm-7.22-2.517h1.65v.6h-1.65v1.65h-.6v-1.65h-1.65v-.6h1.65v-1.65h.6v1.65zm-6.58-1.6h-.818V42l.817-.053.09-1.444h.63v1.444h1.525v.526h-1.525v3.003c0 .752.204 1.145.938 1.145.165 0 .33-.01.566-.05l.073.57c-.268.04-.64.07-.866.07-1 0-1.432-.413-1.432-1.62v-3.116zm-3.14.28V42.74v.01zm0 4.355v-.03.03zm0 0h-.72v-5.16h.72v.827h.02c.465-.465 1.2-.928 2.024-.928v.68c-.815 0-1.63.402-2.043.69v3.89zm-5.425-4.467l.03-.008-.03.007zm2.93 1.98h-1.176c-1.126 0-1.486.402-1.486 1.042 0 .587.443.98 1.226.98.68 0 1.176-.29 1.434-.495V44.62zm-2.93-1.982l-.114-.59a10.56 10.56 0 0 1 1.92-.204c1.197 0 1.847.372 1.847 1.692v3.57h-.722v-.515h-.02c-.526.432-1 .62-1.683.62-1.03 0-1.68-.58-1.68-1.488 0-1.104.856-1.557 2.166-1.557h1.218v-.588c0-.764-.35-1.125-1.28-1.125-.38 0-.876.03-1.65.185zm-5.097-.69h1.32v.525h-1.32v4.634h-.722V42.47h-.815v-.474l.816-.05v-.702c0-.97.37-1.362 1.434-1.362.226 0 .525.03.784.073l-.073.567a3.012 3.012 0 0 0-.555-.052c-.66 0-.867.217-.867.845v.63zm-5.942 2.58c0 1.144.35 2.073 1.548 2.073 1.196 0 1.547-.93 1.547-2.074 0-1.146-.35-2.074-1.546-2.074s-1.548.928-1.548 2.074zm-.762 0c0-1.59.628-2.684 2.31-2.684 1.68 0 2.31 1.094 2.31 2.683 0 1.59-.63 2.682-2.31 2.682-1.682 0-2.31-1.094-2.31-2.683zm-7.677-2.58h.815l1.66 4.447h.022l1.528-4.448h.774l-1.993 5.53c-.45 1.28-1.03 1.796-1.98 1.796-.225 0-.494-.03-.69-.07l.072-.61c.175.04.33.05.464.05.784 0 1.155-.803 1.393-1.42l-2.064-5.274zm-2.774.525h-.817V42l.817-.053.092-1.444h.63v1.444h1.525v.526h-1.526v3.003c0 .752.205 1.145.94 1.145.164 0 .328-.01.565-.05l.07.57c-.267.04-.64.07-.866.07-1 0-1.433-.413-1.433-1.62v-3.116zm-1.826 4.634h-.723v-5.16h.723v5.16zm0-5.788h-.723V40.09h.723v1.228zm-3.673 5.89c-.784 0-1.537-.07-2.157-.225l.135-.59a8.14 8.14 0 0 0 1.94.23c1.104 0 1.208-.69 1.208-.898 0-.38-.228-.69-1.3-.907-1.053-.197-1.88-.537-1.88-1.58 0-.917.652-1.392 1.848-1.392.785 0 1.393.073 2.012.228l-.134.588a7.484 7.484 0 0 0-1.836-.227c-1.083 0-1.165.61-1.165.785 0 .382.175.71 1.237.93 1.135.235 1.94.545 1.94 1.535 0 .98-.65 1.527-1.847 1.527zM91.99 42.75v-.01.01zm0 4.355v-.03.03zm0 0h-.722v-5.16h.722v.828h.02c.465-.465 1.197-.93 2.023-.93v.68c-.815 0-1.63.403-2.043.692v3.89zm-5.457-2.456v-.03.03zm0-.506h2.92c.04-.195.06-.402.04-.61-.04-.597-.38-1.122-1.32-1.122-1.176 0-1.568.772-1.64 1.732zm0 .474c.02 1.155.495 1.98 1.846 1.98.524 0 1.03-.03 1.61-.206l.09.59c-.62.174-1.134.225-1.804.225-1.868 0-2.53-1.095-2.53-2.682 0-1.59.662-2.684 2.467-2.684 1.6 0 1.99.99 2.013 1.858.02.3-.022.62-.073.92h-3.62zm-3.962 2.538l-1.96-5.21h.817l1.59 4.385h.02l1.6-4.384h.773l-1.96 5.21h-.88zm-2.917-.052h-.723v-5.16h.722v5.16zm0-5.788h-.723V40.09h.722v1.228zm-5.417 1.36v-.007.01zm0 4.428v-.03.03zm0 0h-.722v-5.16h.723v.755h.02c.526-.506 1.166-.856 1.918-.856 1.033 0 1.55.6 1.55 1.69v3.57H77V43.69c0-.71-.28-1.236-1.134-1.236-.682 0-1.29.422-1.63.69v3.962zm-2.703-.712v-.01.01zm0-4.446h.723v5.158h-.723v-.743h-.02c-.526.497-1.166.847-1.918.847-1.033 0-1.55-.59-1.55-1.692v-3.57h.723v3.415c0 .71.29 1.237 1.135 1.237.68 0 1.29-.422 1.63-.69v-3.962z" fill="#fff" fill-rule="evenodd"/></svg>