<svg width="99" height="70" viewBox="0 0 99 70" xmlns="http://www.w3.org/2000/svg"><title>sf</title><path d="M62.057 29.683c-.747 0-1.28.26-1.63.792-.352.54-.53 1.31-.53 2.285 0 .977.178 1.75.532 2.293.347.54.88.802 1.626.802.746 0 1.28-.263 1.635-.802.36-.544.54-1.316.54-2.293 0-.976-.18-1.746-.54-2.285-.353-.533-.89-.792-1.634-.792zm22.677-.036c-.747 0-1.278.295-1.626.83-.23.35-.38.803-.46 1.346h4.057c-.04-.524-.143-.993-.378-1.347-.355-.534-.846-.83-1.593-.83zm-45.55 0c-.746 0-1.275.295-1.625.83-.23.35-.38.803-.46 1.346h4.056c-.04-.524-.143-.993-.377-1.347-.356-.534-.85-.83-1.596-.83zm-14.368 3.73c-.342.24-.508.602-.508 1.103 0 .32.058.568.172.743.073.116.103.16.327.34-.004-.003.51.403 1.667.332.813-.05 1.536-.204 1.536-.204v-2.594s-.73-.122-1.545-.132c-1.16-.016-1.652.413-1.65.413zm63.658-.29c-.015.15-.165.15-.165.15l-5.69-.004c.036.867.244 1.48.663 1.898.41.41 1.063.67 1.946.674 1.35.003 1.925-.27 2.333-.422 0 0 .158-.055.214.1l.373 1.045c.075.177.016.238-.048.274-.356.198-1.22.566-2.864.57-.797.003-1.492-.113-2.065-.334a3.772 3.772 0 0 1-1.43-.95 3.78 3.78 0 0 1-.824-1.454 6.127 6.127 0 0 1-.26-1.82c0-.648.084-1.26.25-1.822a4.143 4.143 0 0 1 .77-1.483c.346-.42.786-.757 1.31-1.003.523-.246 1.167-.367 1.877-.367.61 0 1.166.132 1.63.332.354.153.713.43 1.08.826.23.25.583.795.726 1.336.365 1.286.176 2.397.17 2.458zm-8.42 3.85c-.637.25-1.52.426-2.38.426-1.457 0-2.573-.42-3.317-1.253-.743-.827-1.118-1.958-1.118-3.356 0-.65.09-1.26.272-1.817.182-.56.456-1.053.817-1.465a3.874 3.874 0 0 1 1.353-.983c.538-.243 1.166-.364 1.87-.364.475 0 .9.03 1.262.084.39.06.903.2 1.12.286.04.016.15.07.106.198-.156.45-.265.74-.413 1.153-.062.173-.195.116-.195.116-.554-.174-1.083-.255-1.775-.255-.83 0-1.455.28-1.865.824-.412.548-.642 1.266-.644 2.22-.004 1.05.257 1.826.72 2.307.463.477 1.11.72 1.922.72.332 0 .64-.02.92-.066.278-.044.538-.13.782-.223 0 0 .16-.062.215.1l.41 1.146c.054.142-.067.2-.067.2zm-7.113-8.33c-.05.156-.33.94-.425 1.2-.037.098-.098.166-.21.155 0 0-.325-.08-.623-.08a2.74 2.74 0 0 0-.76.11 1.73 1.73 0 0 0-.704.424c-.208.203-.375.485-.498.84-.125.357-.19.926-.19 1.498v4.255a.172.172 0 0 1-.17.17h-1.494a.172.172 0 0 1-.173-.172V28.49c0-.095.068-.172.163-.172h1.458c.097 0 .165.077.165.172v.697c.216-.295.607-.555.96-.714.355-.16.752-.28 1.467-.237.372.023.857.126.953.162a.156.156 0 0 1 .085.206zm-7.027 5.966a4.06 4.06 0 0 1-.765 1.465 3.614 3.614 0 0 1-1.29.977c-.515.234-1.12.353-1.8.353-.682 0-1.288-.12-1.8-.353a3.602 3.602 0 0 1-1.292-.977 4.065 4.065 0 0 1-.764-1.465 6.395 6.395 0 0 1-.247-1.813 6.4 6.4 0 0 1 .248-1.813c.165-.56.422-1.052.765-1.463a3.67 3.67 0 0 1 1.29-.986c.513-.24 1.12-.364 1.802-.364.68 0 1.286.123 1.8.364.515.24.95.572 1.29.984.342.41.6.905.765 1.465a6.41 6.41 0 0 1 .248 1.813 6.41 6.41 0 0 1-.248 1.813zm-8.325-4.89c-.032.17-.19.165-.19.165h-1.874l-1.28 7.278c-.136.753-.304 1.4-.5 1.918-.2.526-.41.91-.74 1.28-.307.337-.653.59-1.05.734-.396.144-.873.217-1.397.217a3.37 3.37 0 0 1-.833-.08 4.354 4.354 0 0 1-.52-.15c-.07-.027-.128-.116-.087-.23.04-.113.374-1.038.42-1.16.06-.147.207-.09.207-.09.1.04.17.072.307.098.137.027.32.05.457.05.246 0 .473-.03.67-.095.237-.08.374-.22.52-.404.15-.193.272-.458.396-.812.127-.36.24-.833.34-1.408l1.277-7.146h-1.26c-.15 0-.2-.07-.183-.184l.212-1.187c.03-.172.19-.166.19-.166h1.29l.07-.385c.19-1.145.576-2.017 1.14-2.59.57-.575 1.38-.867 2.41-.867a4.327 4.327 0 0 1 1.335.194c.04.017.15.072.104.2l-.435 1.2c-.038.09-.062.144-.247.086-.047-.013-.116-.033-.292-.07a2.428 2.428 0 0 0-.467-.047c-.225 0-.43.03-.61.087a1.186 1.186 0 0 0-.476.298c-.143.144-.31.35-.4.61-.21.603-.29 1.246-.3 1.287h1.82c.15 0 .198.072.183.184l-.21 1.188zM47.652 37.4c-.988 0-1.934-.155-2.935-.688-.188-.108-.375-.205-.56-.34-.02-.027-.103-.06-.04-.223l.397-1.108c.058-.18.228-.114.264-.09.107.068.19.125.332.21a4.74 4.74 0 0 0 2.593.747c.875 0 1.42-.467 1.42-1.09v-.037c0-.683-.838-.94-1.807-1.24l-.213-.066c-1.328-.38-2.75-.93-2.75-2.616v-.032c0-1.602 1.288-2.72 3.13-2.72h.2c1.084 0 2.128.314 2.885.776.07.042.136.12.098.227-.036.1-.37 1.004-.41 1.107-.07.19-.266.063-.266.063-.662-.368-1.69-.657-2.557-.657-.78 0-1.284.415-1.284.98v.033c0 .66.86.94 1.857 1.266l.173.055c1.324.42 2.736 1.003 2.736 2.603v.033c0 1.73-1.25 2.804-3.264 2.804zm-4.726-4.312c-.016.148-.166.15-.166.15l-5.686-.005c.035.867.242 1.48.662 1.898.41.41 1.064.67 1.945.674 1.35.003 1.93-.27 2.337-.422 0 0 .157-.055.214.1l.374 1.045c.073.177.015.238-.05.274-.355.198-1.22.566-2.863.57-.796.003-1.492-.113-2.064-.334a3.772 3.772 0 0 1-1.43-.95 3.78 3.78 0 0 1-.824-1.454 6.127 6.127 0 0 1-.257-1.82c0-.648.083-1.26.25-1.822a4.146 4.146 0 0 1 .77-1.483 3.71 3.71 0 0 1 1.31-1.003c.522-.246 1.167-.367 1.878-.367.61 0 1.165.132 1.63.332.355.153.713.43 1.08.826.23.25.583.795.726 1.336.364 1.286.175 2.397.17 2.458zm-9.418 3.92c0 .097-.068.175-.163.175h-1.508c-.095 0-.163-.078-.163-.174V24.82c0-.095.068-.172.163-.172h1.508c.095 0 .163.078.163.173V37.01zm-3.818-.163s-.21.057-.398.1a32.9 32.9 0 0 1-1.432.28c-.564.096-1.144.145-1.728.145-.553 0-1.06-.052-1.507-.155a3.11 3.11 0 0 1-1.158-.504 2.345 2.345 0 0 1-.74-.89c-.175-.36-.262-.8-.262-1.305 0-.496.102-.938.304-1.315.2-.377.477-.695.823-.944a3.67 3.67 0 0 1 1.187-.55c.444-.12.915-.182 1.403-.182.357 0 .656.01.887.026 0 0 .45.04.937.11v-.24c0-.762-.157-1.12-.467-1.36-.32-.245-.792-.37-1.406-.37 0 0-1.385-.018-2.478.58a.723.723 0 0 1-.094.046s-.137.048-.187-.092l-.402-1.086c-.06-.158.05-.227.05-.227.512-.4 1.754-.643 1.754-.643a9.382 9.382 0 0 1 1.524-.14c1.138 0 2.018.265 2.615.79.598.526.903 1.374.903 2.52l.003 5.222s.01.15-.13.186zm-8.24-2.25c0 1.73-1.25 2.805-3.264 2.805-.987 0-1.934-.155-2.934-.688-.19-.108-.375-.205-.56-.34-.02-.027-.104-.06-.042-.223l.397-1.108c.063-.19.207-.127.265-.09.11.066.19.125.332.21a4.736 4.736 0 0 0 2.593.747c.874 0 1.417-.467 1.417-1.09v-.037c0-.683-.835-.94-1.804-1.24l-.213-.066c-1.33-.38-2.75-.93-2.75-2.616v-.032c0-1.602 1.287-2.72 3.13-2.72h.2c1.083 0 2.128.314 2.885.776.07.042.136.12.098.227-.036.1-.37 1.004-.41 1.107-.07.19-.266.063-.266.063-.662-.368-1.69-.657-2.557-.657-.78 0-1.283.415-1.283.98v.033c0 .66.86.94 1.858 1.266l.174.055c1.322.42 2.734 1.003 2.734 2.603v.033zm55.957-24.86c-3.046 0-5.94.652-8.556 1.824-3.01-5.384-8.66-9.01-15.136-9.01-4.873 0-9.278 2.053-12.442 5.363C37.79 3.343 32.3.393 26.12.393 15.592.393 7.06 8.95 7.06 19.5c0 2.702.56 5.27 1.567 7.6C3.73 29.97.44 35.34.44 41.49c0 9.175 7.33 16.612 16.375 16.612 1.154 0 2.28-.122 3.366-.352 2.487 6.768 8.96 11.593 16.56 11.593 7.293 0 13.553-4.448 16.24-10.792a15.33 15.33 0 0 0 6.764 1.565c5.797 0 10.847-3.207 13.496-7.95 1.348.27 2.74.416 4.167.416 11.682 0 21.154-9.59 21.154-21.423 0-11.83-9.47-21.422-21.152-21.422z" fill="#fff" fill-rule="evenodd"/></svg>