<svg width="132" height="49" viewBox="0 0 132 49" xmlns="http://www.w3.org/2000/svg"><title>oakley logo</title><path d="M64.79.156c7.624-.008 13.61.348 20.1 1.44 7.082 1.19 13.687 2.797 19.006 5.81.392.223.693.368 1.203.692 2.072 1.316 4.653 3.425 5.15 6.254.4 2.287-.68 4.15-1.848 5.48-1.212 1.377-2.697 2.426-4.283 3.32-6.47 3.643-14.996 5.582-23.848 6.585-4.114.467-8.428.803-13.492.803-4.923 0-9.27-.197-13.463-.61-8.53-.837-17.462-2.605-24.184-5.976-1.673-.84-3.24-1.756-4.645-2.99-1.335-1.17-2.608-2.62-2.967-4.62-.602-3.358 1.79-5.802 3.78-7.305 2.13-1.613 4.87-2.96 7.5-3.93C38.27 3.09 44.88 1.744 51.44.96c4.373-.527 8.252-.8 13.352-.805zm.197 3.017c-5.917 0-11.536 1.06-16.46 2.85-2.41.875-4.552 1.95-6.436 3.514-1.643 1.364-3.59 3.552-3.133 6.558.392 2.594 2.478 4.444 4.254 5.673 1.985 1.372 4.364 2.41 6.775 3.182 5.21 1.668 11.046 2.387 17.074 2.324 5.726-.06 11.75-1.04 16.485-2.877 2.335-.906 4.576-2.015 6.41-3.542 1.69-1.407 3.482-3.68 3.023-6.503-.41-2.53-2.363-4.38-4.255-5.673-2.08-1.424-4.286-2.36-6.773-3.184-3.81-1.262-8.137-2.01-12.29-2.214-1.3-.063-3.014-.186-4.617-.11h-.056zM55.582 41.36c1.332-1.36 2.725-2.892 4.115-4.4.168-.183.467-.54.615-.58.334-.092.928 0 1.316 0 1.28 0 2.633.02 3.89-.03.055.15-.152.228-.223.305a312.305 312.305 0 0 1-4.507 4.815c1.482 2.42 3.066 4.883 4.48 7.278H58.8c-1.14-1.73-2.11-3.634-3.218-5.396v5.396H49.48c-.02-3.994.037-8.3-.028-12.342 1.94-.064 4.15-.01 6.046-.027.153-.018.084.332.084.523v4.456zm19.285-4.98h6.074v10.707c2.018.02 4.108-.036 6.076.028v1.633H74.81c.066-3.793.01-8.283.03-12.314-.057-.025.012-.12.027-.055zm21.245 0h11.952v1.576h-5.822c-.066 1.208-.01 2.536-.028 3.79 1.493.02 3.06-.036 4.506.03.01.532-.02 1.043.028 1.438h-4.506v3.93c1.875.064 3.872.008 5.794.027v1.58H96.084V36.433c-.012-.053.02-.1.028-.055zm35.688-.03c.023-.004.026.012.028.03-1.65 2.583-3.505 5.204-5.235 7.802.02 1.486-.036 3.19.03 4.538-1.998.065-4.116.01-6.16.028v-3.404c0-.377.07-.806 0-1.134-.062-.288-.453-.68-.67-.996a437.792 437.792 0 0 1-4.62-6.835h6.466c.952 1.48 1.817 3.05 2.713 4.59.94-1.506 1.81-3.08 2.743-4.592 1.56-.02 3.19.035 4.703-.03zM6.095 36.24c2.526-.005 4.774-.028 6.83.388.69.14 1.463.403 1.707.913.23.48.14 1.274.14 2.437v6.392c0 .41.053.924-.056 1.217-.337.907-2.17 1.122-3.107 1.217-2.53.258-5.535.24-8.12 0-1.012-.094-2.825-.31-3.22-1.162-.232-.506-.11-1.704-.11-2.462v-5.09c0-.9-.136-2.086.224-2.63.365-.552 1.563-.858 2.547-.996a20.938 20.938 0 0 1 3.164-.222zm-.224 1.578c-.1.203-.054.785-.054 1.134v6.033c0 .714-.142 1.953.084 2.352.234.41.882.407 1.54.415.52.006 1.312.037 1.566-.388.23-.385.084-1.532.084-2.296v-4.815c0-.518.13-1.982-.028-2.38-.203-.51-1.55-.475-2.015-.443-.335.023-1.002.038-1.176.388zm22.085-1.438c2.27-.002 4.777 0 7.138 0 1.64 4.116 3.283 8.227 4.898 12.368h-6.436c-.353-1.015-.677-2.06-1.035-3.072a52.865 52.865 0 0 0-3.808 0c-.343.98-.607 2.037-.894 3.072H23.42c1.09-3.076 2.244-6.156 3.36-9.242a98.73 98.73 0 0 1 1.175-3.127zm1.036 7.857a36.44 36.44 0 0 1 3.137 0c-.558-1.625-1.095-3.27-1.707-4.842-.45 1.64-.977 3.205-1.43 4.842z" fill="#fff" fill-rule="evenodd"/></svg>